<?xml version="1.0" encoding="utf-8"?>
<!-- Generator: Adobe Illustrator 24.2.3, SVG Export Plug-In . SVG Version: 6.00 Build 0)  -->
<svg version="1.1" id="Layer_1" xmlns="http://www.w3.org/2000/svg" xmlns:xlink="http://www.w3.org/1999/xlink" x="0px" y="0px"
	 viewBox="0 0 964.7 643.1" style="enable-background:new 0 0 964.7 643.1;" xml:space="preserve">
<style type="text/css">
	.st0{fill:#B9E3EB;}
	.st1{fill:#A6D5A4;}
	.st2{fill:#896333;}
	.st3{fill:#432E16;}
	.st4{fill:#5B3F1A;}
	.st5{fill:#C31C70;}
	.st6{fill:#FFFFFF;stroke:#231F20;stroke-width:1.01;stroke-miterlimit:10;}
	.st7{fill:#FFFFFF;stroke:#231F20;stroke-width:2.81;stroke-miterlimit:10;}
	.st8{fill:#FFFFFF;stroke:#231F20;stroke-width:1.16;stroke-miterlimit:10;}
	.st9{fill:#FFFFFF;stroke:#231F20;stroke-width:1.97;stroke-miterlimit:10;}
	.st10{fill:#5B3F1A;stroke:#000000;stroke-miterlimit:10;}
	.st11{enable-background:new    ;}
	.st12{fill:#FFFFFF;}
	.st13{fill:#4B73B9;}
	.st14{fill:none;stroke:#231F20;stroke-width:2;stroke-miterlimit:10;}
	.st15{fill:none;stroke:#231F20;stroke-width:1.5;stroke-miterlimit:10;}
	#cloud-1,#cloud-2,#cloud-3,#cloud-4,#cloud-5{animation: cloud 2s infinite alternate;}
	#dog-head{animation: head 2s infinite alternate;transform-origin: center;transform-box: fill-box;}
	#questionMark{animation: Mark 2s infinite alternate}
	@keyframes head { from{transform: rotateZ(0deg);} to{transform: rotateZ(-30deg);} }
	@keyframes cloud { from{transform: rotateY(0deg);} to{transform: rotateY(10deg);} }
	@keyframes  Mark{ from{transform: rotateX(5deg);} to{transform: rotateX(-20deg)} }
</style>
<path class="st0" d="M208.6,80.3h547.5c115.2,0,208.6,93.4,208.6,208.6v29.8c0,115.2-93.4,208.6-208.6,208.6H208.6
	C93.4,527.3,0,433.9,0,318.7v-29.8C0,173.7,93.4,80.3,208.6,80.3z"/>
<ellipse class="st1" cx="482.4" cy="566.9" rx="482.4" ry="43.5"/>
<path class="st2" d="M745.6,525.7c0,0-0.8,17.9-8.6,19.2v5.1C737.1,549.9,749.1,543.9,745.6,525.7z"/>
<path class="st3" d="M732.6,508.3c0,0,7.3,31.3,9.2,45.8c0.1,1.1-0.7,2.2-1.8,2.3c-0.1,0-0.1,0-0.2,0H721L732.6,508.3z"/>
<path class="st4" d="M733.6,556.4h-62.9l0,0V492c0-15.8,12.8-28.6,28.6-28.6h5.8c15.8,0,28.6,12.8,28.6,28.6L733.6,556.4
	L733.6,556.4z"/>
<path class="st3" d="M715.8,556.4h-27.3l0,0v-46.7c0-6.8,5.5-12.4,12.4-12.4l0,0h2.5c6.8,0,12.4,5.5,12.4,12.4l0,0L715.8,556.4
	L715.8,556.4z"/>
<path class="st2" d="M689.1,556.4H671c-0.3,0-0.5-0.2-0.5-0.5l0,0v-1.5c0-5.3,4.3-9.6,9.6-9.6l0,0c5.3,0,9.6,4.3,9.6,9.6v1.5
	C689.7,556.2,689.4,556.4,689.1,556.4L689.1,556.4L689.1,556.4z"/>
<path class="st2" d="M733.5,556.4h-18.1c-0.3,0-0.5-0.2-0.5-0.5l0,0v-1.5c0-5.3,4.3-9.6,9.6-9.6l0,0c5.3,0,9.6,4.3,9.6,9.6v1.5
	C734.1,556.2,733.8,556.4,733.5,556.4C733.6,556.4,733.6,556.4,733.5,556.4L733.5,556.4z"/>
<g id="dog-head">
	<path class="st4" d="M696.2,408.4c7.1,2.2,14,4.8,20.8,7.8c6.9,2.7,13.6,5.8,20.1,9.3c17.7,9.8,14.1,40.5-5.9,49.6l-0.9,0.4
		c-17.7,7.4-29.7,2.9-37.9-0.6s-19.8-8.9-27-26.6c-0.1-0.3-0.3-0.6-0.4-1C657.3,426.7,676.8,402.6,696.2,408.4z"/>
	<path class="st5" d="M687.3,486.8L687.3,486.8c-5.3-2.2-7.8-8.3-5.6-13.6l0.7-1.8c2.2-5.3,8.3-7.8,13.6-5.6l0,0
		c5.3,2.2,7.8,8.3,5.6,13.6l-0.7,1.8C698.7,486.5,692.6,489,687.3,486.8z"/>
	<path class="st2" d="M690.1,440c4.9,1.6,9.8,3.5,14.5,5.6c4.8,1.9,9.5,4,14.1,6.4c12.5,6.6,11.3,25.1-2.1,29.9l-0.6,0.2
		c-5.1,1.7-10.6,2.2-16,1.3c0,0,4.5-14.1-3.9-17.6c-8.7-3.6-15.3,9.5-15.3,9.5c-4.4-3.2-7.9-7.4-10.3-12.3c-0.1-0.2-0.2-0.4-0.3-0.6
		C664.2,449.6,676.6,435.8,690.1,440z"/>
	<path id="nose" class="st4" d="M698.7,449.7c1.2,0.5,2.4,1,3.2,1.3s2,0.9,3.2,1.4c8.5,3.6,7.2,6-0.6,9.2l-0.2,0.1
		c-3.5,2.3-8.2,1.3-10.5-2.2c-0.5-0.8-0.9-1.7-1.1-2.6c0-0.1-0.1-0.1-0.1-0.2C689.3,448.7,690.2,446.1,698.7,449.7z"/>
	
		<ellipse id="right-eye" transform="matrix(0.3869 -0.9221 0.9221 0.3869 38.6491 940.3819)" cx="726.5" cy="441.1" rx="5.2" ry="3.4"/>
	
		<ellipse id="left-eye" transform="matrix(0.3869 -0.9221 0.9221 0.3869 30.8679 900.2625)" cx="692.5" cy="426.9" rx="5.2" ry="3.4"/>
	<path class="st3" d="M733.9,424.3l26.8,11.2c0,0,4.9,0.4,3.2,10.9c-1.2,7.7-7.8,21.3-11.3,27.9c-0.6,1.2-2.1,1.7-3.3,1.1
		c-0.5-0.2-0.8-0.6-1.1-1.1c-2.3-4.5-5-12.3-1.8-20.3C751.4,441.7,733.9,424.3,733.9,424.3z"/>
	<path class="st3" d="M699.6,409.9l-26.8-11.2c0,0-3.7-3.2-10,5.3c-4.7,6.3-9.7,20.5-12,27.6c-0.4,1.3,0.3,2.7,1.6,3.1
		c0.5,0.2,1,0.2,1.5,0c4.8-1.5,12.2-5,15.7-12.9C674.9,409.6,699.6,409.9,699.6,409.9z"/>
</g>
<g id="cloud-5">
	<path class="st6" d="M303.5,415.3h39.6c0,0,17.1-1.8,17-17c-0.1-8.6-7.6-16.5-17-17c0-11.7-7.5-22.6-19.8-22.6
		c-9.7,0-16.2,5.9-18.5,14.2c-14-0.6-23.5,10.5-24,19.8C280.2,405.2,293.3,415.3,303.5,415.3z"/>
</g>
<g id="cloud-1">
	<path class="st7" d="M186.7,159.1H297c0,0,47.5-4.9,47.3-47.3C344,87.9,323,66,297,64.5c0-32.6-20.9-63-55.1-63
		c-27,0-45.1,16.5-51.5,39.5c-39-1.7-65.4,29.2-66.7,55C122,130.8,158.3,159.1,186.7,159.1z"/>
</g>
<g id="cloud-3">
	<path class="st8" d="M484.7,209.2h45.4c0,0,19.6-2,19.5-19.5c-0.1-9.9-8.7-18.9-19.5-19.5c0-13.4-8.6-26-22.7-26
		c-11.1,0-18.6,6.8-21.2,16.3c-16.1-0.7-27,12-27.5,22.7C458,197.6,473,209.2,484.7,209.2z"/>
</g>
<g id="cloud-2">
	<path class="st9" d="M831.3,176.8H754c0,0-33.3-3.4-33.1-33.1c0.1-16.8,14.8-32.1,33.1-33.1c0-22.9,14.6-44.2,38.6-44.2
		c19,0,31.6,11.6,36.1,27.7c27.3-1.2,45.8,20.5,46.7,38.6C876.6,157,851.1,176.8,831.3,176.8z"/>
</g>
<g id="cloud-4">
	<path class="st9" d="M69.9,287.2H-7.4c0,0-33.3-3.4-33.1-33.1c0.1-16.8,14.8-32.1,33.1-33.1c0-22.9,14.6-44.2,38.6-44.2
		c18.9,0,31.6,11.6,36.1,27.7c27.3-1.2,45.8,20.4,46.7,38.6C115.2,267.4,89.8,287.2,69.9,287.2z"/>
</g>
<rect x="504.1" y="278" class="st10" width="9.5" height="258.5"/>
<rect x="394" y="316.8" class="st10" width="229.9" height="41"/>
<g class="st11">
	<path class="st12" d="M397.4,325.4h4.1c2.3,0,3.9,0.1,4.7,0.3c1.2,0.3,2.1,0.9,2.9,1.8c0.7,0.9,1.1,2,1.1,3.4
		c0,1.4-0.4,2.5-1.1,3.4s-1.7,1.5-3,1.8c-0.9,0.2-2.7,0.3-5.2,0.3h-1.5v9.5h-2V325.4z M399.4,327.4v6.9l3.5,0c1.4,0,2.4-0.1,3.1-0.4
		c0.6-0.3,1.2-0.7,1.5-1.2c0.4-0.6,0.6-1.2,0.6-1.9c0-0.7-0.2-1.3-0.6-1.9s-0.9-1-1.5-1.2c-0.6-0.2-1.6-0.4-3-0.4H399.4z"/>
	<path class="st12" d="M429,330.7v15.1h-1.9v-2.6c-0.8,1-1.7,1.7-2.7,2.2s-2.1,0.8-3.3,0.8c-2.1,0-4-0.8-5.5-2.3
		c-1.5-1.5-2.3-3.4-2.3-5.7c0-2.2,0.8-4,2.3-5.6c1.5-1.5,3.4-2.3,5.5-2.3c1.2,0,2.4,0.3,3.4,0.8s1.9,1.3,2.6,2.4v-2.8H429z
		 M421.2,332.2c-1.1,0-2.1,0.3-3,0.8c-0.9,0.5-1.6,1.3-2.2,2.2s-0.8,2-0.8,3.1c0,1.1,0.3,2.1,0.8,3.1c0.5,1,1.3,1.7,2.2,2.3
		s1.9,0.8,3,0.8c1.1,0,2.1-0.3,3-0.8c1-0.5,1.7-1.3,2.2-2.2s0.8-1.9,0.8-3.1c0-1.7-0.6-3.2-1.7-4.4
		C424.3,332.7,422.9,332.2,421.2,332.2z"/>
	<path class="st12" d="M446.4,330.7h1.9v12c0,2.1-0.2,3.7-0.6,4.7c-0.5,1.4-1.4,2.5-2.7,3.2c-1.3,0.8-2.8,1.1-4.5,1.1
		c-1.3,0-2.5-0.2-3.5-0.6c-1-0.4-1.9-0.9-2.5-1.5c-0.6-0.6-1.2-1.5-1.8-2.7h2.1c0.6,1,1.3,1.7,2.2,2.2s2,0.7,3.4,0.7
		c1.3,0,2.4-0.2,3.4-0.7s1.6-1.1,2-1.9c0.4-0.7,0.6-2,0.6-3.6v-0.8c-0.7,0.9-1.6,1.6-2.7,2.1c-1.1,0.5-2.2,0.7-3.4,0.7
		c-1.4,0-2.7-0.3-3.9-1c-1.2-0.7-2.2-1.6-2.8-2.8c-0.7-1.2-1-2.4-1-3.8c0-1.4,0.3-2.7,1-3.9c0.7-1.2,1.7-2.2,2.9-2.9
		c1.2-0.7,2.5-1.1,3.9-1.1c1.1,0,2.2,0.2,3.2,0.7c1,0.5,1.9,1.2,2.8,2.3V330.7z M440.6,332.2c-1.1,0-2.1,0.3-3.1,0.8
		s-1.7,1.3-2.2,2.2c-0.5,0.9-0.8,2-0.8,3c0,1.7,0.6,3,1.7,4.1s2.6,1.6,4.3,1.6c1.8,0,3.2-0.5,4.3-1.6c1.1-1.1,1.6-2.5,1.6-4.2
		c0-1.1-0.2-2.2-0.7-3s-1.2-1.6-2.1-2.1C442.7,332.4,441.7,332.2,440.6,332.2z"/>
	<path class="st12" d="M465.2,340.8l1.6,0.9c-0.5,1.1-1.2,1.9-1.9,2.6c-0.7,0.6-1.5,1.1-2.4,1.5s-1.9,0.5-3,0.5
		c-2.5,0-4.4-0.8-5.8-2.4c-1.4-1.6-2.1-3.4-2.1-5.5c0-1.9,0.6-3.6,1.8-5.1c1.5-1.9,3.5-2.9,6-2.9c2.6,0,4.6,1,6.2,2.9
		c1.1,1.4,1.6,3.1,1.7,5.2h-13.6c0,1.8,0.6,3.2,1.7,4.3s2.4,1.7,4,1.7c0.8,0,1.5-0.1,2.2-0.4c0.7-0.3,1.3-0.6,1.9-1.1
		S464.6,341.8,465.2,340.8z M465.2,336.7c-0.3-1-0.6-1.9-1.1-2.5s-1.2-1.1-2-1.5c-0.8-0.4-1.7-0.6-2.6-0.6c-1.5,0-2.8,0.5-3.8,1.4
		c-0.8,0.7-1.4,1.7-1.8,3.1H465.2z"/>
	<path class="st12" d="M479.2,345.8v-20.4h0.4l13.6,15.7v-15.7h2v20.4h-0.5l-13.5-15.5v15.5H479.2z"/>
	<path class="st12" d="M507,330.3c2.3,0,4.3,0.8,5.8,2.5c1.4,1.5,2.1,3.4,2.1,5.5c0,2.1-0.7,4-2.2,5.5c-1.5,1.6-3.4,2.4-5.7,2.4
		c-2.3,0-4.2-0.8-5.7-2.4c-1.5-1.6-2.2-3.4-2.2-5.5c0-2.1,0.7-3.9,2.1-5.4C502.8,331.1,504.7,330.3,507,330.3z M507,332.2
		c-1.6,0-3,0.6-4.2,1.8c-1.2,1.2-1.7,2.6-1.7,4.3c0,1.1,0.3,2.1,0.8,3.1s1.2,1.7,2.1,2.2c0.9,0.5,1.9,0.8,3,0.8c1.1,0,2.1-0.3,3-0.8
		s1.6-1.2,2.1-2.2c0.5-0.9,0.8-2,0.8-3.1c0-1.7-0.6-3.1-1.7-4.3S508.6,332.2,507,332.2z"/>
	<path class="st12" d="M520.2,325.1h1.9v5.6h3.1v1.7h-3.1v13.4h-1.9v-13.4h-2.7v-1.7h2.7V325.1z"/>
	<path class="st12" d="M536.3,325.4h10.2v2h-8.2v6.4h8.2v2h-8.2v10h-2V325.4z"/>
	<path class="st12" d="M557,330.3c2.3,0,4.3,0.8,5.8,2.5c1.4,1.5,2.1,3.4,2.1,5.5c0,2.1-0.7,4-2.2,5.5c-1.5,1.6-3.4,2.4-5.7,2.4
		c-2.3,0-4.2-0.8-5.7-2.4c-1.5-1.6-2.2-3.4-2.2-5.5c0-2.1,0.7-3.9,2.1-5.4C552.7,331.1,554.6,330.3,557,330.3z M557,332.2
		c-1.6,0-3,0.6-4.2,1.8c-1.2,1.2-1.7,2.6-1.7,4.3c0,1.1,0.3,2.1,0.8,3.1s1.2,1.7,2.1,2.2c0.9,0.5,1.9,0.8,3,0.8c1.1,0,2.1-0.3,3-0.8
		s1.6-1.2,2.1-2.2c0.5-0.9,0.8-2,0.8-3.1c0-1.7-0.6-3.1-1.7-4.3S558.6,332.2,557,332.2z"/>
	<path class="st12" d="M568.2,330.7h1.9v7.1c0,1.7,0.1,2.9,0.3,3.6c0.3,0.9,0.8,1.7,1.6,2.2c0.8,0.5,1.7,0.8,2.8,0.8s2-0.3,2.8-0.8
		c0.8-0.5,1.3-1.2,1.6-2.1c0.2-0.6,0.3-1.8,0.3-3.7v-7.1h2v7.4c0,2.1-0.2,3.7-0.7,4.7c-0.5,1.1-1.2,1.9-2.2,2.5s-2.2,0.9-3.7,0.9
		s-2.7-0.3-3.7-0.9c-1-0.6-1.7-1.4-2.2-2.5c-0.5-1.1-0.7-2.7-0.7-4.8V330.7z"/>
	<path class="st12" d="M585.7,330.7h1.9v2.7c0.8-1,1.6-1.8,2.6-2.3s2-0.8,3.1-0.8c1.1,0,2.1,0.3,3,0.9s1.5,1.3,1.9,2.3
		c0.4,1,0.6,2.5,0.6,4.5v7.8H597v-7.2c0-1.7-0.1-2.9-0.2-3.5c-0.2-1-0.7-1.8-1.3-2.3s-1.5-0.8-2.5-0.8c-1.2,0-2.2,0.4-3.2,1.2
		c-0.9,0.8-1.5,1.7-1.8,2.9c-0.2,0.8-0.3,2.1-0.3,4.1v5.5h-1.9V330.7z"/>
	<path class="st12" d="M618.1,324.8v20.9h-1.9v-2.6c-0.8,1-1.7,1.7-2.7,2.2s-2.1,0.8-3.3,0.8c-2.1,0-4-0.8-5.5-2.3
		c-1.5-1.5-2.3-3.4-2.3-5.7c0-2.2,0.8-4,2.3-5.6c1.5-1.5,3.4-2.3,5.5-2.3c1.2,0,2.4,0.3,3.4,0.8s1.9,1.3,2.6,2.4v-8.6H618.1z
		 M610.4,332.2c-1.1,0-2.1,0.3-3,0.8c-0.9,0.5-1.6,1.3-2.2,2.2s-0.8,2-0.8,3.1c0,1.1,0.3,2.1,0.8,3.1c0.5,1,1.3,1.7,2.2,2.3
		c0.9,0.5,1.9,0.8,3,0.8c1.1,0,2.1-0.3,3-0.8c1-0.5,1.7-1.3,2.2-2.2c0.5-0.9,0.8-1.9,0.8-3.1c0-1.7-0.6-3.2-1.7-4.4
		C613.5,332.7,612.1,332.2,610.4,332.2z"/>
</g>
<polygon class="st10" points="529.6,221.5 488.2,221.5 467.5,257.4 488.2,293.2 529.6,293.2 550.3,257.4 "/>
<g class="st11">
	<path class="st12" d="M490.5,238.6h0.6v21.3h3.7v2.9h-3.7v7.1h-3v-7.1h-14.6L490.5,238.6z M488.1,259.9v-12.8l-9,12.8H488.1z"/>
	<path class="st12" d="M497.3,254.6c0-4,0.4-7.1,1.3-9.3c0.9-2.2,2.1-3.9,3.7-5c1.6-1.1,3.3-1.7,5.3-1.7c2,0,3.8,0.6,5.4,1.7
		c1.6,1.1,2.9,2.8,3.8,5.1c0.9,2.3,1.4,5.3,1.4,9.2c0,3.8-0.5,6.9-1.4,9.1s-2.2,4-3.8,5.1s-3.4,1.7-5.4,1.7c-1.9,0-3.7-0.6-5.3-1.7
		s-2.8-2.8-3.7-5S497.3,258.6,497.3,254.6z M500.2,254.7c0,3.4,0.3,6,0.9,7.8c0.6,1.8,1.5,3.1,2.7,4c1.2,0.9,2.5,1.4,3.8,1.4
		c1.4,0,2.6-0.4,3.8-1.3c1.2-0.9,2.1-2.2,2.7-4c0.8-2.2,1.1-4.8,1.1-7.8c0-3.1-0.3-5.6-1-7.5c-0.7-2-1.6-3.4-2.8-4.3
		c-1.2-0.9-2.5-1.4-3.8-1.4c-1.4,0-2.6,0.5-3.8,1.4c-1.2,0.9-2.1,2.2-2.7,4C500.5,248.6,500.2,251.2,500.2,254.7z"/>
	<path class="st12" d="M537.6,238.6h0.6v21.3h3.7v2.9h-3.7v7.1h-3v-7.1h-14.6L537.6,238.6z M535.2,259.9v-12.8l-9,12.8H535.2z"/>
</g>
<g id="questionMark">
	<circle id="question-bg" class="st13" cx="726.5" cy="345.6" r="28.1"/>
	<path id="question-mark" class="st12" d="M723.6,364.5h5.8v5.8h-5.8V364.5z M726.5,321c1.9,0,3.8,0.4,5.6,1.1
		c3.5,1.5,6.2,4.3,7.7,7.7c0.8,1.8,1.2,3.7,1.2,5.6c0,1.6-0.3,3.2-0.9,4.7c-0.6,1.3-1.3,2.5-2.2,3.6c-0.8,1.1-1.8,2.1-2.8,3
		s-1.9,1.8-2.8,2.7c-0.8,0.9-1.6,1.8-2.2,2.9c-0.6,1-0.9,2.2-0.9,3.4v2.9h-5.8v-2.9c0-1.6,0.3-3.2,0.9-4.7c0.5-1.3,1.3-2.5,2.2-3.6
		c0.8-1.1,1.8-2.1,2.8-3s1.9-1.8,2.8-2.7c0.8-0.8,1.6-1.8,2.2-2.8c0.6-1.1,0.9-2.2,0.9-3.5c0-1.2-0.2-2.3-0.7-3.4
		c-0.4-1-1.1-2-1.8-2.8c-3.4-3.4-8.9-3.4-12.3,0c-0.8,0.8-1.4,1.7-1.9,2.8c-0.5,1.1-0.7,2.2-0.7,3.4H712c0-1.9,0.4-3.8,1.1-5.6
		c1.5-3.5,4.3-6.2,7.7-7.7C722.6,321.4,724.6,321,726.5,321L726.5,321z"/>
</g>
<line class="st14" x1="166.5" y1="566.9" x2="308.4" y2="566.9"/>
<line class="st15" x1="391.4" y1="535.1" x2="471.6" y2="535.1"/>
<line class="st15" x1="588.8" y1="578.3" x2="669" y2="578.3"/>
<path class="st15" d="M378.1,578.3h56.7c0,0,6.4-11.4,11.5,0h41.4"/>
</svg>
